<mxfile host="65bd71144e">
    <diagram id="brRBfyNgJZqNZpzjh_tV" name="Page-1">
        <mxGraphModel dx="1471" dy="599" grid="1" gridSize="10" guides="1" tooltips="1" connect="1" arrows="1" fold="1" page="1" pageScale="1" pageWidth="850" pageHeight="1100" math="0" shadow="0">
            <root>
                <mxCell id="0"/>
                <mxCell id="1" parent="0"/>
                <mxCell id="16" value="" style="rounded=1;whiteSpace=wrap;html=1;strokeWidth=2;fillColor=#FFCCCC;" vertex="1" parent="1">
                    <mxGeometry x="-40" y="160" width="670" height="170" as="geometry"/>
                </mxCell>
                <mxCell id="2" value="SWAPPER(pid=0)" style="rounded=1;whiteSpace=wrap;html=1;fillColor=light-dark(#FF6666,#512D2B);strokeColor=default;strokeWidth=2;" vertex="1" parent="1">
                    <mxGeometry x="220" y="260" width="120" height="40" as="geometry"/>
                </mxCell>
                <mxCell id="3" value="kthreadd(pid=2)" style="rounded=1;whiteSpace=wrap;html=1;fillColor=light-dark(#FF6666,#512D2B);strokeColor=default;strokeWidth=2;" vertex="1" parent="1">
                    <mxGeometry x="50" y="260" width="120" height="40" as="geometry"/>
                </mxCell>
                <mxCell id="4" value="" style="rounded=1;whiteSpace=wrap;html=1;fillColor=light-dark(#FF9999,#512D2B);strokeColor=none;" vertex="1" parent="1">
                    <mxGeometry x="60" y="180" width="120" height="40" as="geometry"/>
                </mxCell>
                <mxCell id="5" value="" style="rounded=1;whiteSpace=wrap;html=1;fillColor=light-dark(#FF6666,#512D2B);strokeColor=default;strokeWidth=2;" vertex="1" parent="1">
                    <mxGeometry x="410" y="180" width="210" height="120" as="geometry"/>
                </mxCell>
                <mxCell id="6" value="kernel daemons" style="rounded=1;whiteSpace=wrap;html=1;fillColor=light-dark(#FF6666,#512D2B);strokeColor=default;strokeWidth=2;" vertex="1" parent="1">
                    <mxGeometry x="50" y="190" width="120" height="40" as="geometry"/>
                </mxCell>
                <mxCell id="7" value="Binder Driver" style="rounded=1;whiteSpace=wrap;html=1;fillColor=light-dark(#990000,#512D2B);strokeColor=#FFFFFF;fontColor=#FFFFFF;opacity=80;strokeWidth=2;" vertex="1" parent="1">
                    <mxGeometry x="420" y="190" width="90" height="40" as="geometry"/>
                </mxCell>
                <mxCell id="8" value="Camera Driver" style="rounded=1;whiteSpace=wrap;html=1;fillColor=light-dark(#990000,#512D2B);strokeColor=#FFFFFF;fontColor=#FFFFFF;opacity=80;strokeWidth=2;" vertex="1" parent="1">
                    <mxGeometry x="520" y="190" width="90" height="40" as="geometry"/>
                </mxCell>
                <mxCell id="9" value="Display Driver" style="rounded=1;whiteSpace=wrap;html=1;fillColor=light-dark(#990000,#512D2B);strokeColor=#FFFFFF;fontColor=#FFFFFF;opacity=80;strokeWidth=2;" vertex="1" parent="1">
                    <mxGeometry x="420" y="250" width="90" height="40" as="geometry"/>
                </mxCell>
                <mxCell id="10" value="Input Driver" style="rounded=1;whiteSpace=wrap;html=1;fillColor=light-dark(#990000,#512D2B);strokeColor=#FFFFFF;fontColor=#FFFFFF;opacity=80;strokeWidth=2;" vertex="1" parent="1">
                    <mxGeometry x="520" y="250" width="90" height="40" as="geometry"/>
                </mxCell>
                <mxCell id="11" value="" style="endArrow=classic;html=1;entryX=0.5;entryY=1;entryDx=0;entryDy=0;" edge="1" parent="1" target="2">
                    <mxGeometry width="50" height="50" relative="1" as="geometry">
                        <mxPoint x="280" y="340" as="sourcePoint"/>
                        <mxPoint x="340" y="280" as="targetPoint"/>
                    </mxGeometry>
                </mxCell>
                <mxCell id="12" value="" style="endArrow=classic;html=1;entryX=1;entryY=0.5;entryDx=0;entryDy=0;" edge="1" parent="1" source="2" target="3">
                    <mxGeometry width="50" height="50" relative="1" as="geometry">
                        <mxPoint x="290" y="370" as="sourcePoint"/>
                        <mxPoint x="290" y="310" as="targetPoint"/>
                    </mxGeometry>
                </mxCell>
                <mxCell id="13" value="" style="endArrow=classic;html=1;exitX=1;exitY=0.5;exitDx=0;exitDy=0;" edge="1" parent="1" source="2">
                    <mxGeometry width="50" height="50" relative="1" as="geometry">
                        <mxPoint x="300" y="380" as="sourcePoint"/>
                        <mxPoint x="410" y="280" as="targetPoint"/>
                    </mxGeometry>
                </mxCell>
                <mxCell id="14" value="" style="endArrow=classic;html=1;entryX=0.5;entryY=1;entryDx=0;entryDy=0;" edge="1" parent="1" source="3" target="6">
                    <mxGeometry width="50" height="50" relative="1" as="geometry">
                        <mxPoint x="290" y="350" as="sourcePoint"/>
                        <mxPoint x="290" y="310" as="targetPoint"/>
                    </mxGeometry>
                </mxCell>
                <mxCell id="15" value="" style="endArrow=classic;html=1;exitX=0.5;exitY=0;exitDx=0;exitDy=0;" edge="1" parent="1" source="2">
                    <mxGeometry width="50" height="50" relative="1" as="geometry">
                        <mxPoint x="290" y="350" as="sourcePoint"/>
                        <mxPoint x="280" y="140" as="targetPoint"/>
                    </mxGeometry>
                </mxCell>
                <mxCell id="17" value="Kernel" style="text;html=1;align=center;verticalAlign=middle;whiteSpace=wrap;rounded=0;fontSize=14;fontStyle=1" vertex="1" parent="1">
                    <mxGeometry x="-30" y="160" width="60" height="30" as="geometry"/>
                </mxCell>
            </root>
        </mxGraphModel>
    </diagram>
</mxfile>